<svg xmlns="http://www.w3.org/2000/svg" viewBox="0 0 311823 334028" shape-rendering="geometricPrecision" text-rendering="geometricPrecision" image-rendering="optimizeQuality" fill-rule="evenodd" clip-rule="evenodd"><path d="M252298 215324c32683 0 59178 26495 59178 59178s-26495 59178-59178 59178-59178-26496-59178-59178c0-32683 26495-59178 59178-59178zM21595 347h258454c5892 0 11159 2411 14998 6250s6250 9195 6250 14998v189911c-6685-5185-14223-9320-22369-12160V26734c0-1160-446-2143-1250-2856-714-715-1785-1250-2857-1250H26645c-1161 0-2143 446-2857 1250-714 714-1250 1785-1250 2856v189930h89l86727-83026c3481-3214 8927-2857 12052 624 89 89 89 179 178 179l72917 86267c-12839 14056-20672 32764-20672 53301 0 8924 1480 17502 4206 25503H21596c-5893 0-11159-2410-14998-6249s-6249-9195-6249-14998V21597c0-5893 2410-11159 6249-14998S15793 349 21596 349zm178767 214580l10051-61828c803-4643 5178-7856 9820-7053 1785 268 3392 1161 4642 2321l46396 48737c-5900-1406-12054-2154-18385-2154-20163 0-38559 7552-52524 19976zm21696-165924c8481 0 16248 3481 21783 9017 5624 5624 9017 13302 9017 21783s-3482 16248-9017 21784c-5624 5624-13302 9017-21783 9017s-16248-3481-21783-9017c-5624-5624-9017-13302-9017-21784 0-8481 3482-16248 9017-21783 5624-5624 13302-9017 21783-9017zm10413 189512l54139 58583c4278-6483 6770-14248 6770-22596 0-22690-18393-41083-41082-41083-7191 0-13948 1849-19827 5095zm39654 71974l-54139-58583c-4279 6483-6770 14248-6770 22596 0 22689 18393 41082 41082 41082 7191 0 13948-1849 19827-5095z" stroke="#000" stroke-width="694.488"/></svg>